<?xml version="1.0" encoding="utf-8"?>
<!-- Generator: Adobe Illustrator 18.1.1, SVG Export Plug-In . SVG Version: 6.00 Build 0)  -->
<!DOCTYPE svg PUBLIC "-//W3C//DTD SVG 1.1//EN" "http://www.w3.org/Graphics/SVG/1.1/DTD/svg11.dtd">
<svg version="1.1" id="Layer_1" xmlns="http://www.w3.org/2000/svg" xmlns:xlink="http://www.w3.org/1999/xlink" x="0px" y="0px"
	 viewBox="0 0 174 65" enable-background="new 0 0 174 65" xml:space="preserve">
<g>
	<g>
		<g>
			<path fill="#326ABE" d="M96.5,42.2c-0.1-0.6-0.1-1.4-0.1-2.4v-7.4c0-4.7-1.5-7.6-4.6-8.6c-0.8-0.3-1.7-0.5-2.8-0.8v0
				c0.9-0.2,1.7-0.5,2.3-0.8c2.3-0.9,3.7-2.7,4.4-5.3c0.4-1.5,0.6-3.2,0.6-5c0-4.5-1.3-7.7-3.7-9.6C90.8,1,87.4,0.2,82.5,0.2H69.9
				v44.7h9.1V26.7h2.7c0.8,0,1.5,0.1,2.2,0.2c2.3,0.5,3.4,2.3,3.4,5.6v7.3c0,0.8,0.1,1.7,0.2,2.8l0.4,2.2h9.1
				C96.8,43.8,96.6,42.9,96.5,42.2z M86,18.6c-0.9,0.9-2.3,1.3-4.3,1.3h-2.8v-13h2.7c0.7,0,1.4,0.1,2,0.2c1.8,0.3,2.9,1.4,3.3,3.3
				c0.2,0.9,0.3,1.9,0.3,2.9C87.2,16,86.8,17.8,86,18.6z"/>
		</g>
	</g>
	<rect x="101.7" y="0.2" fill="#326ABE" width="9.1" height="44.7"/>
	<path fill="#326ABE" d="M125.4,30.8v1.6c-0.1,4.2,1.6,6.3,4.9,6.4c2.7,0,4.4-1.2,5-3.5c0.2-0.6,0.3-1.3,0.3-2c0-1-0.2-1.8-0.6-2.6
		c-0.3-0.6-0.8-1.2-1.5-1.7l-1.4-0.9l-7.7-4.5c-1.4-0.8-2.6-1.7-3.7-2.6c-1.3-1.1-2.2-2.2-2.8-3.5c-0.7-1.5-1-3.3-1-5.4
		c0-8.4,4.6-12.5,13.9-12.6c7.6,0,11.9,2.7,12.8,8c0.3,1.4,0.4,2.9,0.4,4.5v1.9H135v-1.5c0-0.9-0.1-1.9-0.2-2.7
		c-0.3-2.3-1.7-3.4-4.2-3.4c-2.9,0-4.5,1.6-4.6,4.8c0,1.2,0.2,2.1,0.6,2.8c0.4,0.6,1.1,1.3,2.2,2.1l1.9,1.2l7.6,4.5
		c1,0.6,1.9,1.3,2.8,2c1.2,1.1,2.1,2.2,2.6,3.4c0.6,1.5,0.9,3.3,0.9,5.5c0,6.5-2.5,10.5-7.5,12c-2.1,0.7-4.4,1-7,1
		c-2.4,0-4.6-0.3-6.7-0.9c-3.9-1.1-6.2-3.6-6.8-7.6c-0.3-1.4-0.4-3-0.3-4.7v-1.6H125.4z"/>
	<polygon fill="#326ABE" points="173.6,0.2 173.6,6.9 160.4,6.9 160.4,18.5 173.1,18.5 173.1,25.3 160.4,25.3 160.4,38.1 174,38.1 
		174,44.9 151.3,44.9 151.3,0.2 	"/>
	<polygon fill="#54BD70" points="69.9,50.6 72.9,50.6 75.1,60.9 75.2,60.9 77.6,50.6 80.5,50.6 76.8,64.8 73.3,64.8 	"/>
	<rect x="92.3" y="50.6" fill="#54BD70" width="3" height="14.1"/>
	<path fill="#54BD70" d="M111.2,65c-3.7,0-4.3-2.2-4.2-4.6h3c0,1.3,0.1,2.5,1.7,2.5c1,0,1.5-0.6,1.5-1.6c0-2.5-5.9-2.7-5.9-6.9
		c0-2.2,1.1-4,4.7-4c2.9,0,4.3,1.3,4.1,4.2h-2.9c0-1.1-0.2-2.1-1.4-2.1c-1,0-1.5,0.5-1.5,1.5c0,2.7,5.9,2.4,5.9,6.9
		C116.1,64.6,113.4,65,111.2,65z"/>
	<rect x="127.8" y="50.6" fill="#54BD70" width="3" height="14.1"/>
	<g>
		<path fill="#54BD70" d="M147.1,50.4c-4.9,0-4.9,3.6-4.9,7.3c0,3.7,0,7.3,4.9,7.3c4.9,0,4.9-3.6,4.9-7.3
			C151.9,54,151.9,50.4,147.1,50.4z M147.1,62.9c-1.7,0-1.9-1.6-1.9-5.2c0-3.6,0.2-5.2,1.9-5.2c1.7,0,1.9,1.6,1.9,5.2
			C148.9,61.3,148.7,62.9,147.1,62.9z"/>
	</g>
	<polygon fill="#54BD70" points="163.5,64.8 163.5,50.6 167.4,50.6 171.2,60.4 171.2,60.4 171.2,50.6 174,50.6 174,64.8 170.1,64.8 
		166.3,54.4 166.2,54.4 166.2,64.8 	"/>
	<g>
		<path fill="#54BD70" d="M0,64.8H48l0.1-17.4h17.3L48,64.8h17.4V-0.7L0,64.8z M31.4,62.1V49.7l11.7,0L31.4,62.1z M50.5,42.8V30.3
			l11.7,0L50.5,42.8z"/>
	</g>
</g>
</svg>
